REM DIRINDEX 1\2\6,1\2\7,1\2\8,1\2\9,1\3\10,1\3\11,1\4\12,1\4\13,1\4\14,1\5\15,1\5\16,1\5\17
REM DIRNAME folder01,folder02,folder03,folder04,folder05,folder06,folder07,folder08,folder09,folder10,folder11,folder12,folder13,folder14,folder15,folder16,folder17
TITLE ""
FILE "1400_2_sec02_0101_0115.mp3" MP3
  TRACK 01 AUDIO
    TITLE "0:"
    INDEX 01 00:00:00
  TRACK 02 AUDIO
    TITLE "12:cjc029_1768"
    INDEX 01 00:03:27
  TRACK 03 AUDIO
    TITLE "0:"
    INDEX 01 00:05:16
  TRACK 04 AUDIO
    TITLE "12:cjc029_1769"
    INDEX 01 00:05:61
  TRACK 05 AUDIO
    TITLE "0:"
    INDEX 01 00:07:09
  TRACK 06 AUDIO
    TITLE "13:cjc029_1770"
    INDEX 01 00:08:07
  TRACK 07 AUDIO
    TITLE "0:"
    INDEX 01 00:09:26
  TRACK 08 AUDIO
    TITLE "14:cjc029_1771"
    INDEX 01 00:09:32
  TRACK 09 AUDIO
    TITLE "0:"
    INDEX 01 00:12:20
  TRACK 10 AUDIO
    TITLE "13:cjc029_1772"
    INDEX 01 00:13:00
  TRACK 11 AUDIO
    TITLE "0:"
    INDEX 01 00:14:25
  TRACK 12 AUDIO
    TITLE "14:cjc029_1773"
    INDEX 01 00:14:29
  TRACK 13 AUDIO
    TITLE "0:"
    INDEX 01 00:16:65
  TRACK 14 AUDIO
    TITLE "13:cjc029_1774"
    INDEX 01 00:17:45
  TRACK 15 AUDIO
    TITLE "0:"
    INDEX 01 00:18:56
  TRACK 16 AUDIO
    TITLE "14:cjc029_1775"
    INDEX 01 00:18:60
  TRACK 17 AUDIO
    TITLE "0:"
    INDEX 01 00:21:66
  TRACK 18 AUDIO
    TITLE "13:cjc029_1776"
    INDEX 01 00:22:48
  TRACK 19 AUDIO
    TITLE "0:"
    INDEX 01 00:23:63
  TRACK 20 AUDIO
    TITLE "14:cjc029_1777"
    INDEX 01 00:23:67
  TRACK 21 AUDIO
    TITLE "0:"
    INDEX 01 00:24:74
  TRACK 22 AUDIO
    TITLE "13:cjc029_1778"
    INDEX 01 00:25:56
  TRACK 23 AUDIO
    TITLE "0:"
    INDEX 01 00:26:71
  TRACK 24 AUDIO
    TITLE "14:cjc029_1779"
    INDEX 01 00:27:00
  TRACK 25 AUDIO
    TITLE "0:"
    INDEX 01 00:29:38
  TRACK 26 AUDIO
    TITLE "13:cjc029_1780"
    INDEX 01 00:30:20
  TRACK 27 AUDIO
    TITLE "0:"
    INDEX 01 00:31:27
  TRACK 28 AUDIO
    TITLE "14:cjc029_1781"
    INDEX 01 00:31:31
  TRACK 29 AUDIO
    TITLE "0:"
    INDEX 01 00:34:59
  TRACK 30 AUDIO
    TITLE "13:cjc029_1782"
    INDEX 01 00:35:41
  TRACK 31 AUDIO
    TITLE "0:"
    INDEX 01 00:36:62
  TRACK 32 AUDIO
    TITLE "14:cjc029_1783"
    INDEX 01 00:36:70
  TRACK 33 AUDIO
    TITLE "0:"
    INDEX 01 00:40:21
  TRACK 34 AUDIO
    TITLE "13:cjc029_1784"
    INDEX 01 00:41:04
  TRACK 35 AUDIO
    TITLE "0:"
    INDEX 01 00:42:16
  TRACK 36 AUDIO
    TITLE "14:cjc029_1785"
    INDEX 01 00:42:19
  TRACK 37 AUDIO
    TITLE "0:"
    INDEX 01 00:48:59
  TRACK 38 AUDIO
    TITLE "13:cjc029_1786"
    INDEX 01 00:49:41
  TRACK 39 AUDIO
    TITLE "0:"
    INDEX 01 00:50:56
  TRACK 40 AUDIO
    TITLE "14:cjc029_1787"
    INDEX 01 00:50:62
  TRACK 41 AUDIO
    TITLE "0:"
    INDEX 01 00:53:62
  TRACK 42 AUDIO
    TITLE "13:cjc029_1788"
    INDEX 01 00:54:46
  TRACK 43 AUDIO
    TITLE "0:"
    INDEX 01 00:55:53
  TRACK 44 AUDIO
    TITLE "14:cjc029_1789"
    INDEX 01 00:55:59
  TRACK 45 AUDIO
    TITLE "0:"
    INDEX 01 01:00:53
  TRACK 46 AUDIO
    TITLE "13:cjc029_1790"
    INDEX 01 01:01:34
  TRACK 47 AUDIO
    TITLE "0:"
    INDEX 01 01:02:44
  TRACK 48 AUDIO
    TITLE "14:cjc029_1791"
    INDEX 01 01:02:50
  TRACK 49 AUDIO
    TITLE "0:"
    INDEX 01 01:06:38
  TRACK 50 AUDIO
    TITLE "13:cjc029_1792"
    INDEX 01 01:07:21
  TRACK 51 AUDIO
    TITLE "0:"
    INDEX 01 01:08:50
  TRACK 52 AUDIO
    TITLE "14:cjc029_1793"
    INDEX 01 01:08:58
  TRACK 53 AUDIO
    TITLE "0:"
    INDEX 01 01:09:71
  TRACK 54 AUDIO
    TITLE "13:cjc029_1794"
    INDEX 01 01:10:63
  TRACK 55 AUDIO
    TITLE "0:"
    INDEX 01 01:11:62
  TRACK 56 AUDIO
    TITLE "14:cjc029_1795"
    INDEX 01 01:11:70
  TRACK 57 AUDIO
    TITLE "0:"
    INDEX 01 01:15:21
  TRACK 58 AUDIO
    TITLE "13:cjc029_1796"
    INDEX 01 01:16:01
  TRACK 59 AUDIO
    TITLE "0:"
    INDEX 01 01:17:20
  TRACK 60 AUDIO
    TITLE "14:cjc029_1797"
    INDEX 01 01:17:24
  TRACK 61 AUDIO
    TITLE "0:"
    INDEX 01 01:19:44
  TRACK 62 AUDIO
    TITLE "13:cjc029_1798"
    INDEX 01 01:20:26
  TRACK 63 AUDIO
    TITLE "0:"
    INDEX 01 01:21:47
  TRACK 64 AUDIO
    TITLE "14:cjc029_1799"
    INDEX 01 01:21:55
  TRACK 65 AUDIO
    TITLE "0:"
    INDEX 01 01:23:15
